<svg xmlns="http://www.w3.org/2000/svg" width="15" height="16" viewBox="0 0 15 16" fill="none">
  <path d="M10.1277 2.37704C10.404 2.26022 10.7006 2.20011 11 2.20011C11.2994 2.20011 11.596 2.26022 11.8723 2.37704C12.1486 2.49387 12.3993 2.66512 12.6095 2.88097L12.6195 2.89111C12.8341 3.10259 13.0047 3.35525 13.1213 3.63441C13.2379 3.91358 13.298 4.21351 13.298 4.51659C13.298 4.81966 13.2379 5.11959 13.1213 5.39876C13.0047 5.67792 12.8341 5.93058 12.6195 6.14207L12.6145 6.14711L11.8883 6.87776C11.6158 7.15196 11.6171 7.59517 11.8913 7.8677C12.1656 8.14023 12.6088 8.13887 12.8813 7.86466L13.6051 7.13641C13.951 6.79471 14.2256 6.38739 14.4132 5.93828C14.6012 5.48804 14.698 5.00471 14.698 4.51659C14.698 4.02846 14.6012 3.54514 14.4132 3.09489C14.2261 2.64683 13.9523 2.24035 13.6075 1.89914C13.2684 1.55225 12.8639 1.27631 12.4175 1.08756C11.9688 0.897873 11.4869 0.80011 11 0.80011C10.5131 0.80011 10.0312 0.897873 9.58252 1.08756C9.13503 1.27675 8.72974 1.55354 8.39014 1.90157L6.02217 4.28411C5.67627 4.62581 5.40164 5.03314 5.21408 5.48224C5.02604 5.93248 4.92924 6.41581 4.92924 6.90393C4.92924 7.39206 5.02604 7.87538 5.21408 8.32563C5.40213 8.77589 5.67769 9.18416 6.02486 9.5264C6.30017 9.79781 6.74337 9.79465 7.01478 9.51934C7.28619 9.24403 7.28303 8.80082 7.00772 8.52941C6.79319 8.31793 6.62253 8.06527 6.50595 7.78611C6.38936 7.50694 6.32924 7.20701 6.32924 6.90393C6.32924 6.60086 6.38936 6.30093 6.50595 6.02176C6.62254 5.7426 6.79319 5.48993 7.00772 5.27845L7.01278 5.27341L9.38552 2.88607L9.39052 2.88097C9.60073 2.66512 9.85139 2.49387 10.1277 2.37704Z" fill="#3798F2"/>
  <path d="M9.01736 6.47362C8.74205 6.20221 8.29885 6.20537 8.02744 6.48068C7.75603 6.75599 7.75919 7.1992 8.0345 7.4706C8.24902 7.68209 8.41968 7.93475 8.53627 8.21391C8.65286 8.49308 8.71297 8.79301 8.71297 9.09608C8.71297 9.39916 8.65286 9.69909 8.53627 9.97826C8.41968 10.2574 8.24902 10.5101 8.0345 10.7216L5.61885 13.1096L5.60947 13.119C5.39927 13.3349 5.14861 13.5061 4.87229 13.623C4.59598 13.7398 4.29944 13.7999 4 13.7999C3.70055 13.7999 3.40401 13.7398 3.1277 13.623C2.85138 13.5061 2.60072 13.3349 2.39052 13.119L2.38045 13.1089C2.16593 12.8974 1.99527 12.6448 1.87868 12.3656C1.76209 12.0864 1.70198 11.7865 1.70198 11.4834C1.70198 11.1804 1.76209 10.8804 1.87868 10.6013C1.99527 10.3221 2.16593 10.0694 2.38045 9.85795L2.38551 9.85291L3.11169 9.12226C3.38421 8.84806 3.38285 8.40485 3.10865 8.13232C2.83444 7.85979 2.39123 7.86115 2.1187 8.13536L1.39492 8.8636C1.04901 9.20531 0.774377 9.61263 0.586817 10.0617C0.398778 10.512 0.301979 10.9953 0.301979 11.4834C0.301979 11.9716 0.398778 12.4549 0.586817 12.9051C0.773941 13.3532 1.04774 13.7597 1.39251 14.1009C1.73162 14.4478 2.13607 14.7237 2.58252 14.9125C3.03117 15.1021 3.51308 15.1999 4 15.1999C4.48691 15.1999 4.96883 15.1021 5.41748 14.9125C5.86396 14.7237 6.26844 14.4477 6.60757 14.1008L9.01736 11.7186C9.3644 11.3764 9.64014 10.9679 9.82813 10.5178C10.0162 10.0675 10.113 9.58421 10.113 9.09608C10.113 8.60796 10.0162 8.12464 9.82813 7.67439C9.64009 7.22413 9.36453 6.81586 9.01736 6.47362Z" fill="#3798F2"/>
</svg>