<svg width="16" height="17" viewBox="0 0 16 17" fill="none" xmlns="http://www.w3.org/2000/svg">
<path id="Urgent!" d="M7.66065 1.49558C7.76746 1.16684 8.23254 1.16684 8.33935 1.49558L9.64051 5.50012C9.82215 6.05916 10.3431 6.43766 10.9309 6.43766H15.1415C15.4872 6.43766 15.6309 6.87997 15.3513 7.08314L11.9448 9.55809C11.4693 9.90359 11.2703 10.516 11.4519 11.0751L12.7531 15.0796C12.8599 15.4083 12.4836 15.6817 12.204 15.4785L8.79752 13.0036C8.32197 12.6581 7.67803 12.6581 7.20248 13.0036L3.79602 15.4785C3.51637 15.6817 3.14012 15.4083 3.24693 15.0796L4.54809 11.0751C4.72973 10.516 4.53074 9.90359 4.0552 9.55809L0.648727 7.08314C0.369086 6.87997 0.512803 6.43766 0.858457 6.43766H5.06909C5.65689 6.43766 6.17785 6.05916 6.35949 5.50012L7.66065 1.49558Z" stroke="#B5C5D2"/>
</svg>
