<svg xmlns="http://www.w3.org/2000/svg" width="30" height="26" viewBox="0 0 30 26" fill="none">
  <path fill-rule="evenodd" clip-rule="evenodd" d="M17.2535 1.26829C16.2519 -0.422763 13.7481 -0.422765 12.7465 1.26829L0.352494 22.1951C-0.649045 23.8862 0.602876 26 2.60595 26H27.394C29.3971 26 30.649 23.8862 29.6475 22.1951L17.2535 1.26829ZM13.4662 17.3167H16.5222L16.9519 7.22222H13.0245L13.4662 17.3167ZM13.5259 22.1101C13.8442 22.4565 14.3376 22.6296 15.0061 22.6296C15.6746 22.6296 16.1681 22.4565 16.4864 22.1101C16.8127 21.7638 16.9758 21.2876 16.9758 20.6816V20.5517C16.9758 19.9456 16.8127 19.4694 16.4864 19.1231C16.1681 18.7768 15.6746 18.6036 15.0061 18.6036C14.3376 18.6036 13.8442 18.7768 13.5259 19.1231C13.2076 19.4694 13.0484 19.9456 13.0484 20.5517V20.6816C13.0484 21.2876 13.2076 21.7638 13.5259 22.1101Z" fill="#F8FBFF"/>
</svg>